<svg width="28" height="28" viewBox="0 0 28 28" fill="none" xmlns="http://www.w3.org/2000/svg">
<path d="M14 7L14 23.3333" stroke="#646879" stroke-width="1.5" stroke-linecap="round"/>
<path d="M6.97699 3.83301C10.8751 4.5752 13.1983 6.1277 13.9997 7.019C14.801 6.1277 17.1243 4.5752 21.0224 3.83301C22.9971 3.45701 23.9845 3.26901 24.8254 3.98958C25.6663 4.71015 25.6663 5.88026 25.6663 8.22047V16.6308C25.6663 18.7706 25.6663 19.8405 25.1266 20.5084C24.5869 21.1764 23.3988 21.4027 21.0224 21.8551C18.904 22.2585 17.2507 22.9011 16.054 23.5469C14.8766 24.1823 14.2878 24.5 13.9997 24.5C13.7115 24.5 13.1228 24.1823 11.9454 23.5469C10.7487 22.9011 9.09539 22.2585 6.97699 21.8551C4.6006 21.4027 3.4124 21.1764 2.87271 20.5084C2.33301 19.8405 2.33301 18.7706 2.33301 16.6308V8.22047C2.33301 5.88026 2.33301 4.71015 3.17392 3.98958C4.01484 3.26901 5.00222 3.45701 6.97699 3.83301Z" stroke="#646879" stroke-width="1.5" stroke-linecap="round" stroke-linejoin="round"/>
</svg>
