<svg width="127" height="19" viewBox="0 0 127 19" fill="none" xmlns="http://www.w3.org/2000/svg">
<path d="M3.80798 3.30475C3.72398 3.16475 3.66798 3.05275 3.63998 2.94075C3.58398 2.85675 3.52798 2.77275 3.47198 2.71675C3.38798 2.66075 3.30398 2.63275 3.19198 2.57675C3.05198 2.57675 2.88398 2.54875 2.71598 2.54875V18.1448C2.71598 18.4528 2.54798 18.5648 2.26798 18.5648H0.419977C0.139977 18.5648 -2.33799e-05 18.4528 -2.33799e-05 18.1448V1.45675C-2.33799e-05 1.14875 0.139977 0.812749 0.391977 0.53275C0.671977 0.28075 0.979977 0.14075 1.34398 0.112748H2.96798C3.80798 0.112748 4.47998 0.224749 4.89998 0.420749C5.34798 0.64475 5.68398 1.09275 5.96398 1.68075L11.396 15.3167C11.536 15.6527 11.704 15.8207 11.872 15.9327C11.984 16.0727 12.208 16.1287 12.488 16.1287V0.53275C12.488 0.28075 12.628 0.112748 12.908 0.112748H14.756C15.036 0.112748 15.204 0.28075 15.204 0.53275V17.3608C15.204 17.6968 15.092 18.0048 14.868 18.2288C14.644 18.4808 14.336 18.5648 13.972 18.5648H12.488C11.62 18.5648 10.948 18.4808 10.416 18.2288C9.88398 18.0048 9.46398 17.5848 9.23998 16.9407L3.80798 3.30475ZM31.6137 18.1448C31.6137 18.4528 31.4457 18.5648 31.1937 18.5648H23.4657C22.7657 18.5648 22.1217 18.4808 21.5057 18.3408C20.9177 18.1728 20.4137 17.9208 19.9657 17.5568C19.5457 17.1928 19.1817 16.6887 18.9577 16.1007C18.7057 15.5407 18.5937 14.8407 18.5937 13.9447V4.73275C18.5937 3.22075 19.0137 2.10075 19.8817 1.28875C20.7217 0.50475 21.9257 0.112748 23.4657 0.112748H30.9137C31.1937 0.112748 31.3617 0.28075 31.3617 0.53275V2.12875C31.3617 2.40875 31.1937 2.54875 30.9137 2.54875H23.4657C23.2137 2.54875 22.9617 2.60475 22.7097 2.68875C22.4297 2.80075 22.2057 2.91275 22.0097 3.08075C21.7857 3.24875 21.5897 3.47275 21.4777 3.75275C21.3657 4.00475 21.3097 4.34075 21.3097 4.73275V7.70075H30.3817C30.6337 7.70075 30.8017 7.86875 30.8017 8.14875V9.71675C30.8017 10.0247 30.6337 10.1647 30.3817 10.1647H21.3097V13.9447C21.3097 14.3367 21.3657 14.6727 21.4777 14.9247C21.5897 15.2047 21.7857 15.4287 22.0097 15.5967C22.2057 15.7647 22.4297 15.9047 22.7097 15.9887C22.9617 16.1007 23.2137 16.1287 23.4657 16.1287H31.1937C31.4457 16.1287 31.6137 16.2967 31.6137 16.5767V18.1448ZM49.1531 17.4168C49.2091 17.5288 49.2091 17.5848 49.2091 17.6968C49.1531 17.8368 49.0971 17.9208 48.9851 17.9488L47.3051 18.6768C47.2211 18.7328 47.1091 18.7608 47.0251 18.7048C46.9131 18.6768 46.8291 18.6208 46.8011 18.5088L42.2091 10.1647H40.2491L35.6571 18.5088C35.6011 18.6208 35.5451 18.6768 35.4891 18.7048C35.3771 18.7608 35.2651 18.7328 35.1531 18.6768L33.5291 17.9488C33.3891 17.9208 33.3051 17.8368 33.3051 17.6968C33.2771 17.5848 33.2771 17.5288 33.3331 17.4168C34.0891 16.0448 34.8451 14.6167 35.6571 13.1327C36.4411 11.6767 37.2251 10.2767 37.9811 8.87675L34.1731 1.26075C34.1171 1.17675 34.1451 1.06475 34.2011 0.952749C34.2291 0.840749 34.3131 0.78475 34.4251 0.728749L36.0771 0.0567491C36.3011 0.000749826 36.4411 0.0567491 36.5531 0.25275L40.2491 7.70075H42.1811C42.7691 6.49675 43.4131 5.23675 44.0571 3.97675C44.6731 2.71675 45.3171 1.48475 45.9051 0.25275C45.9891 0.0567491 46.1571 0.000749826 46.4091 0.0567491C46.6331 0.168749 46.9131 0.308749 47.2491 0.39275C47.5291 0.53275 47.8091 0.64475 48.0891 0.728749C48.1731 0.78475 48.2291 0.868749 48.2851 0.952749C48.3131 1.06475 48.3131 1.17675 48.2851 1.26075C47.6691 2.49275 47.0531 3.78075 46.4091 5.04075C45.7371 6.35675 45.0931 7.61675 44.5051 8.84875L49.1531 17.4168ZM65.205 2.12875C65.205 2.40875 65.037 2.54875 64.757 2.54875H59.493V18.1448C59.493 18.4528 59.325 18.5648 59.045 18.5648H57.225C56.917 18.5648 56.777 18.4528 56.777 18.1448V2.54875H51.513C51.205 2.54875 51.065 2.40875 51.065 2.12875V0.53275C51.065 0.28075 51.205 0.112748 51.513 0.112748H64.757C65.037 0.112748 65.205 0.28075 65.205 0.53275V2.12875ZM80.7992 0.50475C80.7992 0.39275 80.8552 0.308749 80.9392 0.196749C81.0232 0.14075 81.1352 0.112748 81.2752 0.112748L83.1232 0.364748C83.2352 0.39275 83.3472 0.448749 83.4312 0.560749C83.4872 0.67275 83.5152 0.812749 83.5152 0.92475L81.3312 12.7407C81.3032 12.8807 81.2752 13.0767 81.2192 13.4127C81.1352 13.7487 81.0232 14.1127 80.8832 14.5607C80.7432 14.9807 80.5192 15.4567 80.2952 15.9047C80.0432 16.4087 79.7632 16.8287 79.3992 17.2208C79.0352 17.6128 78.6152 17.9488 78.1392 18.2008C77.6352 18.4808 77.0752 18.5648 76.4312 18.5648H74.5552C73.8832 18.5648 73.3232 18.4808 72.8192 18.2008C72.3432 17.9488 71.8952 17.6128 71.5872 17.2208C71.1952 16.8287 70.9152 16.4087 70.6912 15.9047C70.4392 15.4567 70.2432 14.9807 70.1032 14.5607C69.9632 14.1127 69.8512 13.7487 69.7952 13.3847C69.7112 13.0487 69.6552 12.8528 69.6552 12.7407L67.4712 0.92475C67.4432 0.812749 67.4712 0.67275 67.5552 0.560749C67.6112 0.448749 67.7232 0.39275 67.8632 0.364748L69.7112 0.112748C69.8232 0.112748 69.9352 0.14075 70.0192 0.196749C70.1032 0.308749 70.1592 0.39275 70.1872 0.50475L72.3712 12.3207C72.3992 12.6567 72.4832 13.0207 72.6232 13.4407C72.7352 13.8887 72.8472 14.3087 73.0712 14.7007C73.2392 15.0927 73.4632 15.4287 73.7152 15.7087C73.9392 15.9887 74.2192 16.1287 74.5552 16.1287H76.4312C76.7392 16.1287 77.0192 15.9887 77.2712 15.7087C77.4952 15.4287 77.7192 15.0927 77.9432 14.7007C78.1112 14.3087 78.2512 13.8887 78.3912 13.4407C78.5032 13.0207 78.5592 12.6567 78.6152 12.3207L80.7992 0.50475ZM86.5195 18.5648C86.2115 18.5648 86.0715 18.4528 86.0715 18.1448V16.5767C86.0715 16.2967 86.2115 16.1287 86.5195 16.1287H88.2555V2.52075H86.5195C86.2115 2.52075 86.0715 2.38075 86.0715 2.10075V0.53275C86.0715 0.25275 86.2115 0.0847487 86.5195 0.0847487H92.7075C92.9595 0.0847487 93.1275 0.25275 93.1275 0.53275V2.10075C93.1275 2.38075 92.9595 2.52075 92.7075 2.52075H90.9715V16.1287H92.7075C92.9595 16.1287 93.1275 16.2967 93.1275 16.5767V18.1448C93.1275 18.4528 92.9595 18.5648 92.7075 18.5648H86.5195ZM105.015 0.112748C105.939 0.112748 106.723 0.25275 107.395 0.448749C108.067 0.728749 108.599 1.03675 109.047 1.40075C109.467 1.82075 109.803 2.24075 109.999 2.74475C110.195 3.22075 110.307 3.72475 110.307 4.17275V5.79675C110.307 6.58075 110.139 7.22475 109.887 7.72875C109.579 8.28875 109.215 8.70875 108.823 9.01675C109.271 9.35275 109.691 9.74475 110.055 10.2487C110.391 10.7527 110.587 11.3127 110.587 11.9287V14.2247C110.531 15.4847 110.083 16.4927 109.243 17.2768C108.375 18.0888 107.199 18.5088 105.715 18.5648H97.5393C97.1753 18.5648 96.8393 18.4808 96.5873 18.2288C96.3353 18.0048 96.1953 17.6968 96.1953 17.3608V1.28875C96.1953 0.980749 96.3353 0.67275 96.5873 0.420749C96.8393 0.224749 97.1753 0.112748 97.5393 0.112748H105.015ZM107.871 11.9287C107.871 11.3967 107.647 10.9767 107.255 10.6407C106.863 10.3327 106.415 10.1647 105.967 10.1647H98.9113V16.1287H105.687C105.855 16.1287 106.079 16.1007 106.331 16.0167C106.555 15.9607 106.807 15.8207 107.059 15.6807C107.255 15.5407 107.451 15.3447 107.619 15.0927C107.787 14.8687 107.871 14.5887 107.871 14.2247V11.9287ZM107.591 4.17275C107.591 4.06075 107.563 3.92075 107.507 3.69675C107.423 3.52875 107.283 3.33275 107.143 3.13675C106.919 2.99675 106.667 2.85675 106.331 2.71675C105.995 2.60475 105.547 2.54875 105.015 2.54875H98.9113V7.70075H106.247C106.611 7.58875 106.947 7.33675 107.227 7.00075C107.451 6.69275 107.591 6.30075 107.591 5.79675V4.17275ZM126.551 18.1448C126.551 18.4528 126.383 18.5648 126.131 18.5648H118.403C117.703 18.5648 117.059 18.4808 116.443 18.3408C115.855 18.1728 115.351 17.9208 114.903 17.5568C114.483 17.1928 114.119 16.6887 113.895 16.1007C113.643 15.5407 113.531 14.8407 113.531 13.9447V4.73275C113.531 3.22075 113.951 2.10075 114.819 1.28875C115.659 0.50475 116.863 0.112748 118.403 0.112748H125.851C126.131 0.112748 126.299 0.28075 126.299 0.53275V2.12875C126.299 2.40875 126.131 2.54875 125.851 2.54875H118.403C118.151 2.54875 117.899 2.60475 117.647 2.68875C117.367 2.80075 117.143 2.91275 116.947 3.08075C116.723 3.24875 116.527 3.47275 116.415 3.75275C116.303 4.00475 116.247 4.34075 116.247 4.73275V7.70075H125.319C125.571 7.70075 125.739 7.86875 125.739 8.14875V9.71675C125.739 10.0247 125.571 10.1647 125.319 10.1647H116.247V13.9447C116.247 14.3367 116.303 14.6727 116.415 14.9247C116.527 15.2047 116.723 15.4287 116.947 15.5967C117.143 15.7647 117.367 15.9047 117.647 15.9887C117.899 16.1007 118.151 16.1287 118.403 16.1287H126.131C126.383 16.1287 126.551 16.2967 126.551 16.5767V18.1448Z" fill="#191927"/>
</svg>
